<svg height="675" width="1440" xmlns="http://www.w3.org/2000/svg"><g fill="none" fill-rule="evenodd" opacity=".5" stroke="#c5c9e0"><path d="M1440 1.913c-.84-.609-42.089-.913-123.743-.913-122.484 0-122.484 223.688-244.967 223.688H826.324c-122.48 0-122.48 223.688-244.964 223.688H336.394c-122.485 0-95.066 170.024-217.55 170.024H0"/><path d="M1440 44.859c-.84-.44-42.089-.659-123.743-.659-122.484 0-122.484 210.313-244.967 210.313H826.324c-122.48 0-122.48 210.314-244.964 210.314H336.394c-122.485 0-95.066 158.973-217.55 158.973H0"/><path d="M1440 89.593c-.84-.262-42.089-.393-123.743-.393-122.484 0-122.484 196.287-244.967 196.287H826.324c-122.48 0-122.48 196.285-244.964 196.285H336.394C213.91 481.77 241.329 629.2 118.845 629.2H0"/><path d="M1440 134.33c-.84-.087-42.089-.13-123.743-.13-122.484 0-122.484 182.259-244.967 182.259H826.324c-122.48 0-122.48 182.257-244.964 182.257H336.394c-122.485 0-95.066 135.884-217.55 135.884H0" stroke-dasharray="10"/><path d="M1440 177.4c-.84.083-42.089.124-123.743.124-122.484 0-122.484 168.841-244.967 168.841H826.324c-122.48 0-122.48 168.844-244.964 168.844H336.394C213.91 515.209 241.329 640 118.845 640H0"/><path d="M1440 222.4c-.84.26-42.089.388-123.743.388-122.484 0-122.484 154.717-244.967 154.717H826.324c-122.48 0-122.48 154.72-244.964 154.72H336.394c-122.485 0-95.066 113.175-217.55 113.175H0"/><path d="M1440 266.5c-.84.434-42.089.65-123.743.65-122.484 0-122.484 140.594-244.967 140.594H826.324c-122.48 0-122.48 140.592-244.964 140.592H336.394c-122.485 0-95.066 101.564-217.55 101.564H0"/><path d="M1440 308.8c-.84.603-42.089.905-123.743.905-122.484 0-122.484 127.132-244.967 127.132H826.324c-122.48 0-122.48 127.13-244.964 127.13H336.394c-122.485 0-95.066 90.433-217.55 90.433H0"/><path d="M1440 353.8h-124.2c-122.484 0-122.026 113.272-244.51 113.272H826.324c-122.48 0-122.48 113.005-244.964 113.005H336.394c-122.485.001-95.066 78.823-217.55 78.823H0"/><path d="M1440 397.9c-.84.956-42.089 1.435-123.743 1.435-122.484 0-122.484 98.87-244.967 98.87H826.324c-122.48 0-122.48 98.875-244.964 98.875H336.394c-122.485 0-95.066 67.22-217.55 67.22H0"/><path d="M1440 441.1c-.84 1.123-42.089 1.685-123.743 1.685-122.484 0-122.484 85.42-244.967 85.42H826.324c-122.48 0-122.48 85.421-244.964 85.421H336.394c-122.485 0-95.066 56.074-217.55 56.074H0" stroke-dasharray="10"/><path d="M1440 484.3c-.84 1.302-42.089 1.954-123.743 1.954-122.484 0-122.484 71.625-244.967 71.625H826.324c-122.48 0-122.48 71.629-244.964 71.629H336.394c-122.485 0-95.066 44.692-217.55 44.692H0"/></g></svg>